<svg id="visual" viewBox="0 0 960 540" width="960" height="540" xmlns="http://www.w3.org/2000/svg" xmlns:xlink="http://www.w3.org/1999/xlink" version="1.1"><g stroke-width="3" stroke-linejoin="bevel"><path d="M469 254.4L466 148.3L421 221.4Z" fill="#96bbff" stroke="#FFFFFF"></path><path d="M466 148.3L421 145.3L421 221.4Z" fill="#68a6ff" stroke="#FFFFFF"></path><path d="M469 254.4L560 162.3L466 148.3Z" fill="#499bff" stroke="#FFFFFF"></path><path d="M469 254.4L558 251.4L560 162.3Z" fill="#eff3ff" stroke="#FFFFFF"></path><path d="M560 162.3L547 103.1L466 148.3Z" fill="#cedcff" stroke="#FFFFFF"></path><path d="M466 148.3L405 90.1L421 145.3Z" fill="#aac6ff" stroke="#FFFFFF"></path><path d="M424 332.6L482 325.6L469 254.4Z" fill="#ffffff" stroke="#FFFFFF"></path><path d="M469 254.4L482 325.6L558 251.4Z" fill="#68a6ff" stroke="#FFFFFF"></path><path d="M477 52.1L405 90.1L466 148.3Z" fill="#81b0ff" stroke="#FFFFFF"></path><path d="M421 145.3L341 180.3L421 221.4Z" fill="#cedcff" stroke="#FFFFFF"></path><path d="M405 90.1L341 180.3L421 145.3Z" fill="#96bbff" stroke="#FFFFFF"></path><path d="M421 221.4L424 332.6L469 254.4Z" fill="#bcd1ff" stroke="#FFFFFF"></path><path d="M326 246.4L424 332.6L421 221.4Z" fill="#eff3ff" stroke="#FFFFFF"></path><path d="M547 103.1L477 52.1L466 148.3Z" fill="#cedcff" stroke="#FFFFFF"></path><path d="M341 180.3L326 246.4L421 221.4Z" fill="#499bff" stroke="#FFFFFF"></path><path d="M482 325.6L583 313.6L558 251.4Z" fill="#81b0ff" stroke="#FFFFFF"></path><path d="M558 251.4L626 239.4L560 162.3Z" fill="#68a6ff" stroke="#FFFFFF"></path><path d="M571 369.7L583 313.6L482 325.6Z" fill="#499bff" stroke="#FFFFFF"></path><path d="M620 294.6L626 239.4L558 251.4Z" fill="#96bbff" stroke="#FFFFFF"></path><path d="M560 162.3L626 71.1L547 103.1Z" fill="#499bff" stroke="#FFFFFF"></path><path d="M424 332.6L491 366.7L482 325.6Z" fill="#68a6ff" stroke="#FFFFFF"></path><path d="M632 384.7L620 294.6L583 313.6Z" fill="#cedcff" stroke="#FFFFFF"></path><path d="M583 313.6L620 294.6L558 251.4Z" fill="#aac6ff" stroke="#FFFFFF"></path><path d="M724 172.3L656 177.3L731 217.4Z" fill="#96bbff" stroke="#FFFFFF"></path><path d="M626 239.4L656 177.3L560 162.3Z" fill="#0091ff" stroke="#FFFFFF"></path><path d="M536 0L490 0L477 52.1Z" fill="#0091ff" stroke="#FFFFFF"></path><path d="M247 216.4L304 293.6L326 246.4Z" fill="#aac6ff" stroke="#FFFFFF"></path><path d="M326 246.4L304 293.6L424 332.6Z" fill="#81b0ff" stroke="#FFFFFF"></path><path d="M424 332.6L409 382.7L491 366.7Z" fill="#ffffff" stroke="#FFFFFF"></path><path d="M310 376.7L409 382.7L424 332.6Z" fill="#eff3ff" stroke="#FFFFFF"></path><path d="M632 384.7L571 369.7L562 464.9Z" fill="#96bbff" stroke="#FFFFFF"></path><path d="M491 366.7L571 369.7L482 325.6Z" fill="#dfe8ff" stroke="#FFFFFF"></path><path d="M536 0L477 52.1L547 103.1Z" fill="#96bbff" stroke="#FFFFFF"></path><path d="M477 52.1L408 0L405 90.1Z" fill="#dfe8ff" stroke="#FFFFFF"></path><path d="M656 177.3L626 71.1L560 162.3Z" fill="#bcd1ff" stroke="#FFFFFF"></path><path d="M345 0L293 95.1L405 90.1Z" fill="#96bbff" stroke="#FFFFFF"></path><path d="M405 90.1L293 95.1L341 180.3Z" fill="#bcd1ff" stroke="#FFFFFF"></path><path d="M341 180.3L247 216.4L326 246.4Z" fill="#499bff" stroke="#FFFFFF"></path><path d="M490 0L408 0L477 52.1Z" fill="#dfe8ff" stroke="#FFFFFF"></path><path d="M626 71.1L536 0L547 103.1Z" fill="#eff3ff" stroke="#FFFFFF"></path><path d="M238 148.3L247 216.4L341 180.3Z" fill="#96bbff" stroke="#FFFFFF"></path><path d="M408 0L345 0L405 90.1Z" fill="#96bbff" stroke="#FFFFFF"></path><path d="M257 328.6L310 376.7L304 293.6Z" fill="#81b0ff" stroke="#FFFFFF"></path><path d="M304 293.6L310 376.7L424 332.6Z" fill="#aac6ff" stroke="#FFFFFF"></path><path d="M247 90.1L238 148.3L293 95.1Z" fill="#81b0ff" stroke="#FFFFFF"></path><path d="M293 95.1L238 148.3L341 180.3Z" fill="#cedcff" stroke="#FFFFFF"></path><path d="M571 369.7L632 384.7L583 313.6Z" fill="#eff3ff" stroke="#FFFFFF"></path><path d="M731 217.4L656 177.3L626 239.4Z" fill="#96bbff" stroke="#FFFFFF"></path><path d="M486 445.9L571 369.7L491 366.7Z" fill="#aac6ff" stroke="#FFFFFF"></path><path d="M373 445.9L486 445.9L409 382.7Z" fill="#499bff" stroke="#FFFFFF"></path><path d="M409 382.7L486 445.9L491 366.7Z" fill="#dfe8ff" stroke="#FFFFFF"></path><path d="M247 216.4L257 328.6L304 293.6Z" fill="#dfe8ff" stroke="#FFFFFF"></path><path d="M166 322.6L257 328.6L247 216.4Z" fill="#ffffff" stroke="#FFFFFF"></path><path d="M223 0L247 90.1L293 95.1Z" fill="#eff3ff" stroke="#FFFFFF"></path><path d="M714 285.6L626 239.4L620 294.6Z" fill="#ffffff" stroke="#FFFFFF"></path><path d="M656 177.3L700 76.1L626 71.1Z" fill="#bcd1ff" stroke="#FFFFFF"></path><path d="M701 389.7L714 285.6L620 294.6Z" fill="#eff3ff" stroke="#FFFFFF"></path><path d="M714 285.6L731 217.4L626 239.4Z" fill="#eff3ff" stroke="#FFFFFF"></path><path d="M724 172.3L700 76.1L656 177.3Z" fill="#cedcff" stroke="#FFFFFF"></path><path d="M626 71.1L647 0L536 0Z" fill="#499bff" stroke="#FFFFFF"></path><path d="M306 478.9L373 445.9L310 376.7Z" fill="#81b0ff" stroke="#FFFFFF"></path><path d="M310 376.7L373 445.9L409 382.7Z" fill="#dfe8ff" stroke="#FFFFFF"></path><path d="M700 76.1L647 0L626 71.1Z" fill="#0091ff" stroke="#FFFFFF"></path><path d="M486 540L562 464.9L486 445.9Z" fill="#68a6ff" stroke="#FFFFFF"></path><path d="M486 445.9L562 464.9L571 369.7Z" fill="#68a6ff" stroke="#FFFFFF"></path><path d="M257 328.6L262 401.7L310 376.7Z" fill="#499bff" stroke="#FFFFFF"></path><path d="M168 372.7L262 401.7L257 328.6Z" fill="#eff3ff" stroke="#FFFFFF"></path><path d="M247 90.1L182 129.3L238 148.3Z" fill="#aac6ff" stroke="#FFFFFF"></path><path d="M238 148.3L182 129.3L247 216.4Z" fill="#eff3ff" stroke="#FFFFFF"></path><path d="M156 103.1L182 129.3L247 90.1Z" fill="#eff3ff" stroke="#FFFFFF"></path><path d="M632 384.7L701 389.7L620 294.6Z" fill="#81b0ff" stroke="#FFFFFF"></path><path d="M792 255.4L779 141.3L731 217.4Z" fill="#68a6ff" stroke="#FFFFFF"></path><path d="M645 479.9L701 389.7L632 384.7Z" fill="#68a6ff" stroke="#FFFFFF"></path><path d="M731 217.4L779 141.3L724 172.3Z" fill="#ffffff" stroke="#FFFFFF"></path><path d="M724 172.3L779 141.3L700 76.1Z" fill="#96bbff" stroke="#FFFFFF"></path><path d="M700 76.1L714 0L647 0Z" fill="#cedcff" stroke="#FFFFFF"></path><path d="M792 255.4L731 217.4L714 285.6Z" fill="#499bff" stroke="#FFFFFF"></path><path d="M778 0L714 0L700 76.1Z" fill="#96bbff" stroke="#FFFFFF"></path><path d="M345 0L223 0L293 95.1Z" fill="#aac6ff" stroke="#FFFFFF"></path><path d="M262 401.7L306 478.9L310 376.7Z" fill="#dfe8ff" stroke="#FFFFFF"></path><path d="M405 540L486 540L486 445.9Z" fill="#81b0ff" stroke="#FFFFFF"></path><path d="M803 291.6L792 255.4L714 285.6Z" fill="#81b0ff" stroke="#FFFFFF"></path><path d="M135 232.4L166 322.6L247 216.4Z" fill="#68a6ff" stroke="#FFFFFF"></path><path d="M262 401.7L266 484.9L306 478.9Z" fill="#81b0ff" stroke="#FFFFFF"></path><path d="M621 540L645 479.9L562 464.9Z" fill="#ffffff" stroke="#FFFFFF"></path><path d="M562 464.9L645 479.9L632 384.7Z" fill="#eff3ff" stroke="#FFFFFF"></path><path d="M786 367.7L803 291.6L714 285.6Z" fill="#499bff" stroke="#FFFFFF"></path><path d="M223 0L156 103.1L247 90.1Z" fill="#499bff" stroke="#FFFFFF"></path><path d="M182 129.3L135 232.4L247 216.4Z" fill="#68a6ff" stroke="#FFFFFF"></path><path d="M72 152.3L135 232.4L182 129.3Z" fill="#68a6ff" stroke="#FFFFFF"></path><path d="M405 540L486 445.9L373 445.9Z" fill="#cedcff" stroke="#FFFFFF"></path><path d="M786 367.7L714 285.6L701 389.7Z" fill="#499bff" stroke="#FFFFFF"></path><path d="M868 179.3L793 77.1L779 141.3Z" fill="#68a6ff" stroke="#FFFFFF"></path><path d="M306 478.9L405 540L373 445.9Z" fill="#cedcff" stroke="#FFFFFF"></path><path d="M779 141.3L793 77.1L700 76.1Z" fill="#96bbff" stroke="#FFFFFF"></path><path d="M868 179.3L779 141.3L792 255.4Z" fill="#499bff" stroke="#FFFFFF"></path><path d="M70 311.6L168 372.7L166 322.6Z" fill="#bcd1ff" stroke="#FFFFFF"></path><path d="M166 322.6L168 372.7L257 328.6Z" fill="#bcd1ff" stroke="#FFFFFF"></path><path d="M179 444.9L266 484.9L262 401.7Z" fill="#499bff" stroke="#FFFFFF"></path><path d="M306 478.9L310 540L405 540Z" fill="#ffffff" stroke="#FFFFFF"></path><path d="M486 540L566 540L562 464.9Z" fill="#499bff" stroke="#FFFFFF"></path><path d="M801 440.9L786 367.7L701 389.7Z" fill="#cedcff" stroke="#FFFFFF"></path><path d="M793 77.1L778 0L700 76.1Z" fill="#bcd1ff" stroke="#FFFFFF"></path><path d="M566 540L621 540L562 464.9Z" fill="#eff3ff" stroke="#FFFFFF"></path><path d="M645 479.9L725 472.9L701 389.7Z" fill="#bcd1ff" stroke="#FFFFFF"></path><path d="M695 540L725 472.9L645 479.9Z" fill="#dfe8ff" stroke="#FFFFFF"></path><path d="M219 540L310 540L266 484.9Z" fill="#ffffff" stroke="#FFFFFF"></path><path d="M266 484.9L310 540L306 478.9Z" fill="#0091ff" stroke="#FFFFFF"></path><path d="M168 372.7L179 444.9L262 401.7Z" fill="#81b0ff" stroke="#FFFFFF"></path><path d="M65 401.7L179 444.9L168 372.7Z" fill="#bcd1ff" stroke="#FFFFFF"></path><path d="M223 0L134 0L156 103.1Z" fill="#cedcff" stroke="#FFFFFF"></path><path d="M156 103.1L72 152.3L182 129.3Z" fill="#96bbff" stroke="#FFFFFF"></path><path d="M885 217.4L792 255.4L803 291.6Z" fill="#499bff" stroke="#FFFFFF"></path><path d="M885 217.4L868 179.3L792 255.4Z" fill="#eff3ff" stroke="#FFFFFF"></path><path d="M793 77.1L871 0L778 0Z" fill="#eff3ff" stroke="#FFFFFF"></path><path d="M60 81.1L72 152.3L156 103.1Z" fill="#eff3ff" stroke="#FFFFFF"></path><path d="M135 232.4L70 311.6L166 322.6Z" fill="#96bbff" stroke="#FFFFFF"></path><path d="M621 540L695 540L645 479.9Z" fill="#bcd1ff" stroke="#FFFFFF"></path><path d="M725 472.9L801 440.9L701 389.7Z" fill="#68a6ff" stroke="#FFFFFF"></path><path d="M805 540L801 440.9L725 472.9Z" fill="#81b0ff" stroke="#FFFFFF"></path><path d="M904 298.6L885 217.4L803 291.6Z" fill="#eff3ff" stroke="#FFFFFF"></path><path d="M54 224.4L70 311.6L135 232.4Z" fill="#499bff" stroke="#FFFFFF"></path><path d="M904 298.6L803 291.6L906 380.7Z" fill="#dfe8ff" stroke="#FFFFFF"></path><path d="M72 152.3L54 224.4L135 232.4Z" fill="#cedcff" stroke="#FFFFFF"></path><path d="M142 540L219 540L179 444.9Z" fill="#ffffff" stroke="#FFFFFF"></path><path d="M179 444.9L219 540L266 484.9Z" fill="#499bff" stroke="#FFFFFF"></path><path d="M134 0L60 81.1L156 103.1Z" fill="#eff3ff" stroke="#FFFFFF"></path><path d="M72 152.3L0 159.3L54 224.4Z" fill="#eff3ff" stroke="#FFFFFF"></path><path d="M134 0L87 0L60 81.1Z" fill="#dfe8ff" stroke="#FFFFFF"></path><path d="M960 149.3L889 64.1L868 179.3Z" fill="#ffffff" stroke="#FFFFFF"></path><path d="M868 179.3L889 64.1L793 77.1Z" fill="#96bbff" stroke="#FFFFFF"></path><path d="M906 380.7L803 291.6L786 367.7Z" fill="#499bff" stroke="#FFFFFF"></path><path d="M885 217.4L960 149.3L868 179.3Z" fill="#0091ff" stroke="#FFFFFF"></path><path d="M889 64.1L871 0L793 77.1Z" fill="#68a6ff" stroke="#FFFFFF"></path><path d="M0 330.6L65 401.7L70 311.6Z" fill="#499bff" stroke="#FFFFFF"></path><path d="M70 311.6L65 401.7L168 372.7Z" fill="#0091ff" stroke="#FFFFFF"></path><path d="M885 473.9L906 380.7L801 440.9Z" fill="#68a6ff" stroke="#FFFFFF"></path><path d="M801 440.9L906 380.7L786 367.7Z" fill="#81b0ff" stroke="#FFFFFF"></path><path d="M70 458.9L142 540L179 444.9Z" fill="#cedcff" stroke="#FFFFFF"></path><path d="M0 54.1L0 159.3L60 81.1Z" fill="#aac6ff" stroke="#FFFFFF"></path><path d="M60 81.1L0 159.3L72 152.3Z" fill="#0091ff" stroke="#FFFFFF"></path><path d="M54 224.4L0 252.4L70 311.6Z" fill="#eff3ff" stroke="#FFFFFF"></path><path d="M0 159.3L0 252.4L54 224.4Z" fill="#499bff" stroke="#FFFFFF"></path><path d="M65 401.7L70 458.9L179 444.9Z" fill="#96bbff" stroke="#FFFFFF"></path><path d="M0 390.7L70 458.9L65 401.7Z" fill="#96bbff" stroke="#FFFFFF"></path><path d="M695 540L805 540L725 472.9Z" fill="#ffffff" stroke="#FFFFFF"></path><path d="M0 252.4L0 330.6L70 311.6Z" fill="#cedcff" stroke="#FFFFFF"></path><path d="M960 320.6L960 246.4L904 298.6Z" fill="#ffffff" stroke="#FFFFFF"></path><path d="M904 298.6L960 246.4L885 217.4Z" fill="#bcd1ff" stroke="#FFFFFF"></path><path d="M889 64.1L960 0L871 0Z" fill="#96bbff" stroke="#FFFFFF"></path><path d="M960 246.4L960 149.3L885 217.4Z" fill="#499bff" stroke="#FFFFFF"></path><path d="M87 0L0 54.1L60 81.1Z" fill="#499bff" stroke="#FFFFFF"></path><path d="M805 540L885 473.9L801 440.9Z" fill="#aac6ff" stroke="#FFFFFF"></path><path d="M906 380.7L960 320.6L904 298.6Z" fill="#bcd1ff" stroke="#FFFFFF"></path><path d="M960 361.7L960 320.6L906 380.7Z" fill="#cedcff" stroke="#FFFFFF"></path><path d="M0 330.6L0 390.7L65 401.7Z" fill="#bcd1ff" stroke="#FFFFFF"></path><path d="M70 458.9L78 540L142 540Z" fill="#aac6ff" stroke="#FFFFFF"></path><path d="M960 149.3L960 58.1L889 64.1Z" fill="#aac6ff" stroke="#FFFFFF"></path><path d="M87 0L0 0L0 54.1Z" fill="#eff3ff" stroke="#FFFFFF"></path><path d="M960 446.9L960 361.7L906 380.7Z" fill="#81b0ff" stroke="#FFFFFF"></path><path d="M0 486.9L78 540L70 458.9Z" fill="#499bff" stroke="#FFFFFF"></path><path d="M960 58.1L960 0L889 64.1Z" fill="#0091ff" stroke="#FFFFFF"></path><path d="M960 540L960 446.9L885 473.9Z" fill="#96bbff" stroke="#FFFFFF"></path><path d="M885 473.9L960 446.9L906 380.7Z" fill="#bcd1ff" stroke="#FFFFFF"></path><path d="M805 540L903 540L885 473.9Z" fill="#0091ff" stroke="#FFFFFF"></path><path d="M0 390.7L0 486.9L70 458.9Z" fill="#81b0ff" stroke="#FFFFFF"></path><path d="M0 486.9L0 540L78 540Z" fill="#81b0ff" stroke="#FFFFFF"></path><path d="M903 540L960 540L885 473.9Z" fill="#eff3ff" stroke="#FFFFFF"></path></g></svg>