<svg id="visual" viewBox="0 0 2000 600" width="2000" height="600" xmlns="http://www.w3.org/2000/svg" xmlns:xlink="http://www.w3.org/1999/xlink" version="1.1"><g stroke-width="1" stroke-linejoin="bevel"><path d="M425 298L535 295L423 185Z" fill="#ffffff" stroke="#0091ff"></path><path d="M535 295L519 154L423 185Z" fill="#ffffff" stroke="#0091ff"></path><path d="M535 295L723 204L519 154Z" fill="#ffffff" stroke="#0091ff"></path><path d="M719 0L556 0L519 154Z" fill="#ffffff" stroke="#0091ff"></path><path d="M519 154L351 0L423 185Z" fill="#ffffff" stroke="#0091ff"></path><path d="M685 442L722 320L535 295Z" fill="#ffffff" stroke="#0091ff"></path><path d="M535 295L722 320L723 204Z" fill="#ffffff" stroke="#0091ff"></path><path d="M423 185L224 298L425 298Z" fill="#ffffff" stroke="#0091ff"></path><path d="M425 298L522 498L535 295Z" fill="#ffffff" stroke="#0091ff"></path><path d="M209 117L224 298L423 185Z" fill="#ffffff" stroke="#0091ff"></path><path d="M334 486L522 498L425 298Z" fill="#ffffff" stroke="#0091ff"></path><path d="M556 0L351 0L519 154Z" fill="#ffffff" stroke="#0091ff"></path><path d="M224 298L334 486L425 298Z" fill="#ffffff" stroke="#0091ff"></path><path d="M522 498L685 442L535 295Z" fill="#ffffff" stroke="#0091ff"></path><path d="M351 0L209 117L423 185Z" fill="#ffffff" stroke="#0091ff"></path><path d="M723 204L719 0L519 154Z" fill="#ffffff" stroke="#0091ff"></path><path d="M0 353L161 419L224 298Z" fill="#ffffff" stroke="#0091ff"></path><path d="M224 298L161 419L334 486Z" fill="#ffffff" stroke="#0091ff"></path><path d="M331 600L586 600L522 498Z" fill="#ffffff" stroke="#0091ff"></path><path d="M522 498L586 600L685 442Z" fill="#ffffff" stroke="#0091ff"></path><path d="M331 600L522 498L334 486Z" fill="#ffffff" stroke="#0091ff"></path><path d="M194 600L331 600L334 486Z" fill="#ffffff" stroke="#0091ff"></path><path d="M351 0L144 0L209 117Z" fill="#ffffff" stroke="#0091ff"></path><path d="M209 117L0 199L224 298Z" fill="#ffffff" stroke="#0091ff"></path><path d="M900 455L722 320L685 442Z" fill="#ffffff" stroke="#0091ff"></path><path d="M900 455L900 246L722 320Z" fill="#ffffff" stroke="#0091ff"></path><path d="M722 320L900 246L723 204Z" fill="#ffffff" stroke="#0091ff"></path><path d="M723 204L900 111L719 0Z" fill="#ffffff" stroke="#0091ff"></path><path d="M900 246L900 111L723 204Z" fill="#ffffff" stroke="#0091ff"></path><path d="M586 600L737 600L685 442Z" fill="#ffffff" stroke="#0091ff"></path><path d="M161 419L194 600L334 486Z" fill="#ffffff" stroke="#0091ff"></path><path d="M737 600L900 455L685 442Z" fill="#ffffff" stroke="#0091ff"></path><path d="M144 0L0 199L209 117Z" fill="#ffffff" stroke="#0091ff"></path><path d="M161 419L0 502L194 600Z" fill="#ffffff" stroke="#0091ff"></path><path d="M900 111L900 0L719 0Z" fill="#ffffff" stroke="#0091ff"></path><path d="M0 199L0 353L224 298Z" fill="#ffffff" stroke="#0091ff"></path><path d="M144 0L0 0L0 199Z" fill="#ffffff" stroke="#0091ff"></path><path d="M0 353L0 502L161 419Z" fill="#ffffff" stroke="#0091ff"></path><path d="M737 600L900 600L900 455Z" fill="#ffffff" stroke="#0091ff"></path><path d="M0 502L0 600L194 600Z" fill="#ffffff" stroke="#0091ff"></path></g></svg>